<svg xmlns="http://www.w3.org/2000/svg" xmlns:xlink="http://www.w3.org/1999/xlink" preserveAspectRatio="xMidYMid" width="14" height="16" viewBox="0 0 14 16">
  <defs>
    <style>
      .cls-1 {
        fill: #999;
        fill-rule: evenodd;
      }
    </style>
  </defs>
  <path d="M13.858,8.333 L11.258,10.824 C11.162,10.916 11.036,10.962 10.910,10.962 C10.785,10.962 10.659,10.915 10.563,10.823 C10.371,10.640 10.371,10.341 10.563,10.157 L12.324,8.469 L5.311,8.469 C5.040,8.469 4.820,8.260 4.820,8.000 C4.820,7.740 5.040,7.531 5.311,7.531 L12.295,7.531 L10.560,5.841 C10.370,5.656 10.372,5.358 10.564,5.175 C10.756,4.993 11.066,4.993 11.258,5.177 L13.858,7.668 C13.950,7.756 14.002,7.876 14.002,8.000 C14.002,8.125 13.950,8.245 13.858,8.333 ZM10.053,3.695 C9.781,3.695 9.563,3.485 9.563,3.225 L9.563,0.937 L0.985,0.937 L0.985,15.062 L9.563,15.062 L9.563,12.776 C9.563,12.516 9.781,12.305 10.053,12.305 C10.324,12.305 10.542,12.516 10.542,12.776 L10.542,15.534 C10.542,15.794 10.319,16.000 10.047,16.000 L0.497,16.000 C0.226,16.000 0.006,15.794 0.006,15.534 L0.006,0.467 C0.006,0.207 0.226,-0.000 0.497,-0.000 L10.047,-0.000 C10.319,-0.000 10.542,0.207 10.542,0.467 L10.542,3.225 C10.542,3.485 10.324,3.695 10.053,3.695 Z" class="cls-1"/>
</svg>
