<svg xmlns="http://www.w3.org/2000/svg" xmlns:xlink="http://www.w3.org/1999/xlink" preserveAspectRatio="xMidYMid" width="16" height="16" viewBox="0 0 16 16">
  <defs>
    <style>
      .cls-1 {
        fill: #999;
        fill-rule: evenodd;
      }
    </style>
  </defs>
  <path d="M0.046,13.464 C0.141,13.675 0.372,13.818 0.625,13.818 L5.213,13.818 C5.413,15.053 6.591,16.000 7.991,16.000 C9.390,16.000 10.569,15.053 10.769,13.818 L15.367,13.818 L15.367,13.818 C15.399,13.818 15.430,13.818 15.462,13.809 C15.693,13.780 15.883,13.636 15.967,13.445 C16.051,13.225 15.988,12.995 15.809,12.842 C15.799,12.832 15.788,12.823 15.778,12.813 C15.714,12.756 15.462,12.498 15.220,11.952 C14.957,11.368 14.631,10.325 14.631,8.708 C14.631,5.512 13.305,3.828 12.200,2.976 C11.463,2.411 10.727,2.134 10.243,2.000 C10.221,1.608 10.116,1.072 9.717,0.641 C9.443,0.344 8.927,-0.000 8.012,-0.000 C7.107,-0.000 6.591,0.354 6.318,0.641 C5.907,1.081 5.792,1.627 5.781,2.029 C5.286,2.163 4.550,2.440 3.824,2.986 C1.793,4.498 1.372,6.928 1.372,8.689 C1.372,10.258 1.046,11.301 0.772,11.904 C0.478,12.545 0.193,12.832 0.193,12.832 L0.193,12.832 C0.004,12.995 -0.049,13.244 0.046,13.464 ZM8.001,14.852 C7.296,14.852 6.696,14.411 6.507,13.818 L9.496,13.818 C9.306,14.411 8.706,14.852 8.001,14.852 ZM2.635,8.689 C2.635,3.541 6.339,3.053 6.486,3.033 C6.654,3.014 6.812,2.938 6.917,2.813 C7.023,2.689 7.065,2.536 7.044,2.373 C7.012,2.191 6.991,1.655 7.275,1.359 C7.328,1.301 7.496,1.120 8.012,1.120 C8.527,1.120 8.696,1.301 8.759,1.359 C9.022,1.636 9.011,2.163 8.980,2.335 C8.948,2.488 8.990,2.651 9.096,2.775 C9.201,2.899 9.348,2.986 9.527,3.005 C9.538,3.005 10.474,3.129 11.411,3.847 C12.726,4.852 13.389,6.488 13.389,8.708 C13.389,10.660 13.799,11.914 14.210,12.679 L1.793,12.679 C2.193,11.885 2.635,10.603 2.635,8.689 Z" class="cls-1"/>
</svg>
