<svg xmlns="http://www.w3.org/2000/svg" xmlns:xlink="http://www.w3.org/1999/xlink" preserveAspectRatio="xMidYMid" width="16" height="16" viewBox="0 0 16 16">
  <defs>
    <style>
      .cls-1 {
        fill: #999;
        fill-rule: evenodd;
      }
    </style>
  </defs>
  <path d="M15.206,10.001 L14.105,10.201 C14.105,10.401 14.005,10.601 13.906,10.801 L14.506,11.701 L15.006,12.402 L12.405,15.002 L11.705,14.502 L10.804,13.902 C10.604,14.002 10.405,14.002 10.204,14.102 L10.004,15.203 L9.804,16.003 L6.203,16.003 L6.003,15.203 L5.803,14.102 C5.603,14.002 5.402,14.002 5.203,13.902 L4.302,14.502 L3.602,15.002 L1.001,12.402 L1.501,11.701 L2.102,10.801 C2.001,10.601 2.001,10.401 1.901,10.201 L0.801,10.001 L0.001,9.800 L0.001,6.200 L0.801,5.999 L1.901,5.799 C2.001,5.599 2.001,5.399 2.202,5.199 L1.601,4.299 L1.101,3.599 L3.602,1.098 L4.302,1.498 L5.203,2.098 C5.402,1.998 5.603,1.998 5.803,1.898 L6.003,0.798 L6.203,-0.002 L9.804,-0.002 L10.004,0.798 L10.204,1.898 C10.405,1.998 10.604,1.998 10.804,2.098 L11.705,1.498 L12.405,0.998 L15.006,3.599 L14.506,4.299 L13.906,5.199 C14.005,5.399 14.005,5.599 14.105,5.799 L15.206,5.999 L16.006,6.200 L16.006,9.800 L15.206,10.001 ZM15.006,7.000 L13.305,6.700 C13.205,6.200 13.005,5.700 12.705,5.199 L13.605,3.799 L12.205,2.398 L10.804,3.298 C10.304,2.998 9.804,2.798 9.304,2.699 L9.004,0.998 L7.003,0.998 L6.603,2.699 C6.103,2.798 5.603,2.998 5.103,3.298 L3.702,2.398 L2.301,3.799 L3.302,5.199 C3.002,5.700 2.802,6.200 2.702,6.700 L1.001,7.000 L1.001,9.000 L2.702,9.300 C2.802,9.800 3.002,10.301 3.302,10.801 L2.402,12.202 L3.802,13.601 L5.203,12.702 C5.703,13.002 6.203,13.202 6.703,13.302 L7.003,15.002 L9.004,15.002 L9.304,13.302 C9.804,13.202 10.304,13.002 10.804,12.702 L12.205,13.601 L13.605,12.202 L12.705,10.801 C13.005,10.301 13.205,9.800 13.305,9.300 L15.006,9.000 L15.006,7.000 ZM8.003,11.501 C6.103,11.501 4.502,9.901 4.502,8.000 C4.502,6.100 6.103,4.499 8.003,4.499 C9.904,4.499 11.505,6.100 11.505,8.000 C11.505,9.901 9.904,11.501 8.003,11.501 ZM8.003,5.499 C6.603,5.499 5.503,6.600 5.503,8.000 C5.503,9.401 6.603,10.501 8.003,10.501 C9.404,10.501 10.504,9.401 10.504,8.000 C10.504,6.600 9.404,5.499 8.003,5.499 Z" class="cls-1"/>
</svg>
